/* XPM */
static char *_c1125bbb1fc4c3890897e1e36aca3655uAWEIv0UrFOM2Zi[] = {
/* columns rows colors chars-per-pixel */
"64 64 50 1 ",
"  c None",
". c #1E3E3D",
"X c #1E403F",
"o c #1F4241",
"O c #204544",
"+ c #214749",
"@ c #234B4C",
"# c #25504E",
"$ c #244F50",
"% c #265453",
"& c #285956",
"* c #2A5C5C",
"= c #2E5E64",
"- c #2F5F68",
"; c #2F6069",
": c #31636C",
"> c #356B75",
", c #376F79",
"< c #37707A",
"1 c #3A737C",
"2 c #3C787F",
"3 c #454545",
"4 c #4C4C4C",
"5 c #545454",
"6 c #5B5B5B",
"7 c #5F6F6F",
"8 c #4C7D7F",
"9 c #5A7B75",
"0 c #656464",
"q c #696666",
"w c #696768",
"e c #656D6C",
"r c #696868",
"t c #62716F",
"y c #607370",
"u c #4F857F",
"i c #56817A",
"p c #50897F",
"a c #3E7C82",
"s c #407E84",
"d c #428486",
"f c #4F8680",
"g c #468C87",
"h c #4D8A81",
"j c #448D88",
"k c #508980",
"l c #469087",
"z c #4A9286",
"x c #469288",
"c c #489588",
/* pixels */
"    455656655655555656600wqqqqqqrqrrer06655565565655555555      ",
"    55555545555555555660qeeyttytty77r006655555555555555655      ",
"    555543445554444456qqreihhppppkk9tqr0665444445544345555      ",
"    55553334454444456qqet9hcxxxcxxxh9ee0065443445533345555      ",
"    66554334554455560qqt9gxxgddddjdghiew006544445543335566      ",
"    06654344554555600ee9hccgddaaaaddjh9ee00655545544345660      ",
"    66653445555545600yihzxdddd11aasddjhierr066554554335566      ",
"    0664345544455660qyhccgdda21,>>aaadjh9eerr6555455445660      ",
"    066544555455560qqtkcdddd2,,,,,1asddjhsrwr0665555445667      ",
"    66554455555560qet9klda821,,,,,,,adddjzyer0065555445666      ",
"    06644455554560qtihzgjs21,,,,,,,aadddzzzitr065555445566      ",
"    76654455555660qtpcclda1,,,,,>>>,aaddgcckyw665555445666      ",
"      555555456600qtkzcgja1<,,,,:>>,aaaddgxkyw0655455555        ",
"      6565445560qet9hxxgda1<,,,>:->>>>asddjkyw0655455556        ",
"      5555545560qtihllgdda1<,,,>:-::>,aaddxktw0066555655        ",
"      6555445560qtkcclddaa1<,,>>---:>aaaddgk9err05555556        ",
"      554444660qqtpccggs21,,,>::---:><<asdddhit006554455        ",
"      554445600et9hxlgds1,,,>>:-===:>,,1sddgxkyq66553456        ",
"      654345600eihzxgdds1,,>::;-=*=:>,,1sssdxhy006554455        ",
"      554445600yhzcxdssa1,>>:-=**&=:>,,1sddgjktq66544456        ",
"      554445600ypczgds21,>::;;**&*=:>,,1sdsdxpt006544455        ",
"      55444460qypxxgd21,,>:;;;*&&*=:>,,1asddgptqq6554455        ",
"      55444550qtpxgd21,,,>:;==*&&*=:>,,<ssddxptqq0054455        ",
"      65444560qtuxda1,,,,>:--**&&&=:>,,asddgxh9twq064456        ",
"      65446600rtpxda1,,,,>:==&*&%%=->a>asdsdglhit0054455        ",
"      554460qrt9hxda1,,,>>:=*&&%$%=-:,>>asddglxky0064456        ",
"      5544500tihzxga1,,,::-=*&%$$%=--:>a11sddgjkyq665455        ",
"      554560qthxxjda1,,>:--=*%$@+$==-->>,1addgxptq064455        ",
"      656600wypxgdds1,,>:--=*&@@oo$=-:>a<1adddxktq064455        ",
"      5560rre9hxdss21,,>:--=*&%+oo$==;>><1adddgpt0065455        ",
"      56600tihzxds21,,,>:--=*&@+oo$=-:>><1adddxutq006665        ",
"      56600yhcxgdd1,,,,>:--=*&@Ooo$%=-:a<1sdddxh9ee00665        ",
"      5666qykxgdds1,,,,>:;;;*%O..o@%=:>,,1sdddlzhitq0665        ",
"      5660qykxddds1<,,>>:;*;*%O..X@%=->,,1adddgccktq0655        ",
"      65000ykjddd81<,>::;****&@+.o#&=:>,,1asddlccp7r0665        ",
"      5566qykxdsaa1,,>:-;;*&&%@O.o%*=:>,,1sdsdlzcht00656        ",
"      5666qykxddda1,,>:;;=&&%@+.Xo%*=:>,,1adddxzchyr0655        ",
"      5600qykjgdda1,,>:;;=*&@+X.Xo%*=;>111adddxzcpt00665        ",
"      5560qthxddsa1,,>:-==*&@@X.o#%==:>,,1adddlzch7r6666        ",
"      66600eifgddaa1,>:--=*&%@Ooo%&==;>,,1adddglhitr0655        ",
"      56600ry9fjddsa1>:-==*&&%@@&*;=;:>,,1adddxh9te00665        ",
"      655600qyklddds1>:;:=***&%%&*=;::>111addgxptq006656        ",
"      555560qehxdddaa>,>:-==*&&&&&;;:,<<2addddcktq065455        ",
"      554450qykjddda,,,>:=;=*&&***;;>,<1adddddxktq064455        ",
"      554560rykxddda1,,>:;;=**&&;;;:><<1adddgxzhyq065455        ",
"      5544500ykxgdda1,,>::;=***==;;:<<12sddgllhit0054455        ",
"      654450q7kcjjda1,,,,::-;=-=;;>><<2sddglzh9ter064455        ",
"      554460wyikzldaa1,,<>:==;-;;:><<1sdddglhitqq0654456        ",
"      555460qre9hjgdaa,>,>:----:>>,,,1sdddxh9ee006644455        ",
"      5544560qqthxdddaa,,>::--::>1,,>1sddgxktqq066544455        ",
"      55444560qthxddda1>,,>>::>>,,,,,1sdgxckt00665544455        ",
"      65544560qt9hgddaa,,,,>::>,,,,,,2sggccky00655444455        ",
"    66555545600ee9hgjssa1,,,>>,,,,,12sddlccky0065445555666      ",
"    066655455000r78hdddsa1<1<,,,,,,2sdddlzhieq066545555660      ",
"    765565545660rrt9hjdsaasa1,,,>18addgxzh9te0065544556560      ",
"    6655545445660qqtihjdsddsa<,,1assddxccktqq0665445555666      ",
"    6665445554566qqre9hjdsddaa,,aaddsdjcchyq06554555445660      ",
"    0664344545456600wy9hgdddaaa8asdddjxxhitq06555454335566      ",
"    6665434455545560qee9fjdddssssdsdjcxk9ee006555444345607      ",
"    665533345544446600weihdjddddddjdhkkitw0065445543345566      ",
"    556533345544444560rrt9fjxgddddgh9yyer00654445543345555      ",
"    45554434554444445670qtihffs8ssfitq00006644445543345555      ",
"    55565555555555555666rreyytttreytr066666555556555555555      ",
"    555555565655555655560rwrwwwwwrwww065565565655555655555      "
};
