/* XPM */
static char *_a59203362334ba9f02d4b03e762a7a4YOeJfGmG5RNQRztP[] = {
/* columns rows colors chars-per-pixel */
"64 64 2 1 ",
"  c black",
". c #37946E",
/* pixels */
"................................................................",
"................................................................",
"................................................................",
"................................................................",
"................................................................",
"................................................................",
"................................................................",
"...........                                          ...........",
"...........                                          ...........",
"...........                                          ...........",
"...........                                          ...........",
"...........                                          ...........",
"...........                                          ...........",
"...........                                          ...........",
"...........                                          ...........",
"...........                                          ...........",
"...........                                          ...........",
"...........                                          ...........",
"...........                                          ...........",
"...........            .........................................",
"...........            .........................................",
"...........            .........................................",
"...........            .........................................",
"...........            .........................................",
"...........            .........................................",
"...........            .........................................",
"...........                                          ...........",
"...........                                          ...........",
"...........                                          ...........",
"...........                                          ...........",
"...........                                          ...........",
"...........                                          ...........",
"...........                                          ...........",
"...........                                          ...........",
"...........                                          ...........",
"...........                                          ...........",
"...........                                          ...........",
"...........                                          ...........",
"...........            .........................................",
"...........            .........................................",
"...........            .........................................",
"...........            .........................................",
"...........            .........................................",
"...........            .........................................",
"...........            .........................................",
"...........                                          ...........",
"...........                                          ...........",
"...........                                          ...........",
"...........                                          ...........",
"...........                                          ...........",
"...........                                          ...........",
"...........                                          ...........",
"...........                                          ...........",
"...........                                          ...........",
"...........                                          ...........",
"...........                                          ...........",
"...........                                          ...........",
"................................................................",
"................................................................",
"................................................................",
"................................................................",
"................................................................",
"................................................................",
"................................................................"
};
