/* XPM */
static char *bb5320e0320141e5964af5a93d37d9dcd9hj09zL2RZy9844[] = {
/* columns rows colors chars-per-pixel */
"64 64 2 1 ",
"  c black",
". c #AC3232",
/* pixels */
"................................................................",
"................................................................",
"................................................................",
"................................................................",
"................................................................",
"................................................................",
"................................................................",
"...........          ......................          ...........",
"...........           .....................          ...........",
"...........           .....................          ...........",
"...........            ....................          ...........",
"...........             ...................          ...........",
"...........             ...................          ...........",
"...........              ..................          ...........",
"...........              ..................          ...........",
"...........               .................          ...........",
"...........                ................          ...........",
"...........                ................          ...........",
"...........                 ...............          ...........",
"...........                  ..............          ...........",
"...........                  ..............          ...........",
"...........                   .............          ...........",
"...........          .         ............          ...........",
"...........          .         ............          ...........",
"...........          ..         ...........          ...........",
"...........          ...         ..........          ...........",
"...........          ...         ..........          ...........",
"...........          ....         .........          ...........",
"...........          .....        .........          ...........",
"...........          .....         ........          ...........",
"...........          ......         .......          ...........",
"...........          ......         .......          ...........",
"...........          .......         ......          ...........",
"...........          ........         .....          ...........",
"...........          ........         .....          ...........",
"...........          .........         ....          ...........",
"...........          ..........         ...          ...........",
"...........          ..........         ...          ...........",
"...........          ...........         ..          ...........",
"...........          ...........          .          ...........",
"...........          ............         .          ...........",
"...........          .............                   ...........",
"...........          .............                   ...........",
"...........          ..............                  ...........",
"...........          ...............                 ...........",
"...........          ...............                 ...........",
"...........          ................                ...........",
"...........          ................                ...........",
"...........          .................               ...........",
"...........          ..................              ...........",
"...........          ..................              ...........",
"...........          ...................             ...........",
"...........          ....................            ...........",
"...........          ....................            ...........",
"...........          .....................           ...........",
"...........          .....................           ...........",
"...........          ......................          ...........",
"................................................................",
"................................................................",
"................................................................",
"................................................................",
"................................................................",
"................................................................",
"................................................................"
};
