/* XPM */
static char *_c95a7311f894688b09f32f8df91b6b0AnWr463N9g2gOFVv[] = {
/* columns rows colors chars-per-pixel */
"64 64 2 1 ",
"  c black",
". c #5B6EE1",
/* pixels */
"................................................................",
"................................................................",
"................................................................",
"................................................................",
"................................................................",
"................................................................",
"................................................................",
"...........                                          ...........",
"...........                                          ...........",
"...........                                          ...........",
"...........                                          ...........",
"...........                                          ...........",
"...........                                          ...........",
"...........                                          ...........",
"...........                                          ...........",
"...........                                          ...........",
"...........                                          ...........",
"...........                                          ...........",
"...........         .........................        ...........",
"...........         .........................        ...........",
"...........         .........................        ...........",
"...........         .........................        ...........",
"...........         .........................        ...........",
"...........         ............................................",
"...........         ............................................",
"...........         ............................................",
"...........         ............................................",
"...........         ............................................",
"...........                                          ...........",
"...........                                          ...........",
"...........                                          ...........",
"...........                                          ...........",
"...........                                          ...........",
"...........                                          ...........",
"...........                                          ...........",
"...........                                          ...........",
"...........                                          ...........",
"............................................         ...........",
"............................................         ...........",
"............................................         ...........",
"............................................         ...........",
"............................................         ...........",
"...........        .........................         ...........",
"...........        .........................         ...........",
"...........        .........................         ...........",
"...........        .........................         ...........",
"...........        .........................         ...........",
"...........                                          ...........",
"...........                                          ...........",
"...........                                          ...........",
"...........                                          ...........",
"...........                                          ...........",
"...........                                          ...........",
"...........                                          ...........",
"...........                                          ...........",
"...........                                          ...........",
"...........                                          ...........",
"................................................................",
"................................................................",
"................................................................",
"................................................................",
"................................................................",
"................................................................",
"................................................................"
};
