/* XPM */
static char *adc3ffdc02c442d2da0e3f2ae04163a8kOioQGJ8AQQiVwMV[] = {
/* columns rows colors chars-per-pixel */
"64 64 2 1 ",
"  c black",
". c #807900",
/* pixels */
"................................................................",
"................................................................",
"................................................................",
"................................................................",
"................................................................",
"................................................................",
"................................................................",
"...........          .......        .......          ...........",
"...........          .......        .......          ...........",
"...........          .......        .......          ...........",
"............         .......        .......         ............",
"............          .....          .....          ............",
"............          .....          .....          ............",
"............          .....          .....          ............",
"............          .....          .....          ............",
".............         .....          .....         .............",
".............         .....          .....         .............",
".............         .....          .....         .............",
".............          ...            ...          .............",
".............          ...            ...          .............",
"..............         ...            ...         ..............",
"..............         ...            ...         ..............",
"..............         ...            ...         ..............",
"..............         ...            ...         ..............",
"..............         ...            ...         ..............",
"...............         .              .         ...............",
"...............         .              .         ...............",
"...............         .              .         ...............",
"...............         .              .         ...............",
"...............         .              .         ...............",
"................        .              .        ................",
"................        .              .        ................",
"................                                ................",
"................                                ................",
".................                              .................",
".................              ..              .................",
".................              ..              .................",
".................              ..              .................",
".................              ..              .................",
"..................             ..             ..................",
"..................             ..             ..................",
"..................            ....            ..................",
"..................            ....            ..................",
"..................            ....            ..................",
"...................           ....           ...................",
"...................           ....           ...................",
"...................           ....           ...................",
"...................          ......          ...................",
"...................          ......          ...................",
"....................         ......         ....................",
"....................         ......         ....................",
"....................         ......         ....................",
"....................         ......         ....................",
"....................        ........        ....................",
".....................       ........       .....................",
".....................       ........       .....................",
".....................       ........       .....................",
"................................................................",
"................................................................",
"................................................................",
"................................................................",
"................................................................",
"................................................................",
"................................................................"
};
