/* XPM */
static char *accd02cbc5054190832cd1725bb4fb8f6FIXDY9kQFQ29lUG[] = {
/* columns rows colors chars-per-pixel */
"64 64 14 1 ",
"  c None",
". c #090810",
"X c #071925",
"o c #131122",
"O c #212335",
"+ c #790B0F",
"@ c #670E10",
"# c #413D5B",
"$ c #9E0B0F",
"% c #C00D12",
"& c #FB0000",
"* c #B56A60",
"= c #E5AF8D",
"- c #FFEFDD",
/* pixels */
"                                                                ",
"                                                                ",
"                                                                ",
"                                                                ",
"                                                                ",
"                                                                ",
"                                                                ",
"                                             ++                 ",
"                                          +  ++                 ",
"                                             +                  ",
"                                             ++                 ",
"                                            ++++                ",
"                                            ++%++               ",
"                            oooo            ++%%+               ",
"                           oo##O.           +%%%+++             ",
"                          oo#XXXO.         ++%%%%+++            ",
"                          o#XXXXoO.        ++%%%%%+++           ",
"                         oo#X&Xo&O.       ++%@@$$%%++           ",
"                         oo#XXXooO.       +%@@@$$$%++           ",
"                    #    oo#XXoooO.       +%@@$.$$%+            ",
"                    ##  .oo#OoooOo# .     +%@$$..@%+            ",
"                    O#OOO.oo##OOo.o.o     +%%@$$@@%+            ",
"                    #O##oO#.oooo.#.oo.    +%%.@$$%+             ",
"                    o#oO#OOo#.o.#o.o.o    ++%..@@%+             ",
"                   #OoO##o$OOoO#oo.oo..    ++..%%+              ",
"                   OOOo#ooo$$O#oo@..ooo     +..++               ",
"                   oOoOoo$OOo$O#@oo...o      .                  ",
"            *=--    oOoOOo$OOO$@oo@ o.o.    ..                  ",
"           *=--=*   Oooo Oo$$OO#o@   o.##   ..                  ",
"           *=.**.   oOo   OOo$OO@o   .OOO#  ..                  ",
"           ***==*  o#o#   oOOo$@o     OOO#  ..                  ",
"            *==*  oOo#O    oOOooo      OOOO .                   ",
"             *=*  Oo#O     $o#oo@.     #OOO .                   ",
"                 #OoO     oO$$@@...    ##O#..                   ",
"                 O##O    oOOoo.....     OOOo.                   ",
"              o O#oO    ooOoO#.ooo.      ##Oo                   ",
"              Oo#oO    oOOoOo.ooOo..      ooO                   ",
"              OOoO     oOooO#.oOooo.       .                    ",
"               OO     oooOoO.oOOooo..      .                    ",
"                     oOooOoo.oooooo..      .                    ",
"                     ooOoOo#o.ooOooo.     .                     ",
"                     ooOoo#oO.oOOOoo.     .                     ",
"                     oOoo#oO .oO OOo.     .                     ",
"                      oo#o#O .o  OOO.     .                     ",
"                       o#oOo  . OO.O.     .                     ",
"                      ooOOo     O.o.O    .                      ",
"                      oOOOo    ..oo.O    .                      ",
"                     oOOOoo    .oo...    .                      ",
"                     oOOoo     oo....    .                      ",
"                      oOoo      ....     .                      ",
"                      Ooo      ....     .                       ",
"                     OOo       ...      .                       ",
"                     OOo       ...      .                       ",
"                     Ooo        ..                              ",
"                    OOoo        .oo                             ",
"                    Ooo          oo                             ",
"                    Ooo           o                             ",
"                    Ooo                                         ",
"                     o                                          ",
"                                                                ",
"                                                                ",
"                                                                ",
"                                                                ",
"                                                                "
};
